<svg style="position: absolute; width: 0; height: 0; overflow: hidden;" aria-hidden="true" version="1.1" xmlns="http://www.w3.org/2000/svg" xmlns:xlink="http://www.w3.org/1999/xlink">
    <style>
        .default-palette, .palette0 {color: currentColor;
            --color0: #f4f4fd;
            --color1: #4d5ae5;
            --color2: #2e2f42;
            --color3: #8e8f99;
        }
    </style>
    <defs>
        <symbol id="icon-linkedin" viewBox="0 0 40 40" fill="none" xmlns:xlink="http://www.w3.org/1999/xlink">
            <rect fill="var(--color1, #4d5ae5)" width="40" height="40" rx="20" />
            <g fill="var(--color0, #f4f4fd)" clip-path="url(#Link_3_clip0_1065801_886)">
                <path d="M27.996 27.9999l4e-3-7e-4v-5.868c0-2.8706-0.618-5.082-3.974-5.082-1.6133 0-2.696 0.8854-3.138 1.7247h-0.0467v-1.4567h-3.182v10.682h3.3134v-5.2893c0-1.3927 0.264-2.7393 1.9886-2.7393 1.6994 0 1.7247 1.5893 1.7247 2.8286v5.2007z" />
                <path d="M12.264 17.3178h3.3173v10.682H12.264z" />
                <path d="M13.9213 11.9999c-1.0606 0-1.9213 0.8606-1.9213 1.9213s0.8607 1.9393 1.9213 1.9393c1.0607 0 1.9214-0.8786 1.9214-1.9393-7e-4-1.0607-0.8614-1.9213-1.9214-1.9213z" />
            </g>
            <defs>
                <clipPath id="Link_3_clip0_1065801_886">
                    <rect fill="#fff" transform="translate(12 11.9999)" width="16" height="16" />
                </clipPath>
            </defs>
        </symbol>
        <symbol id="icon-facebook" viewBox="0 0 40 40" fill="none" xmlns:xlink="http://www.w3.org/1999/xlink">
            <rect fill="var(--color1, #4d5ae5)" width="40" height="40" rx="20" />
            <path fill="var(--color0, #f4f4fd)" d="M22.6648 14.6565h1.4606v-2.544c-0.252-0.0346-1.1186-0.1126-2.128-0.1126-2.106 0-3.5486 1.3246-3.5486 3.7593v2.2407h-2.324v2.844h2.324v7.156h2.8493v-7.1554h2.23l0.354-2.844h-2.5847v-1.9593c7e-4-0.822 0.222-1.3847 1.3674-1.3847z" />
        </symbol>
        <symbol id="icon-twitter" viewBox="0 0 40 40" fill="none" xmlns:xlink="http://www.w3.org/1999/xlink">
            <rect fill="var(--color1, #4d5ae5)" width="40" height="40" rx="20" />
            <path fill="var(--color0, #f4f4fd)" d="M24.6 12.75h2.454l-5.36 6.142L28 27.25h-4.937l-3.867-5.07-4.425 5.07h-2.455l5.733-6.57L12 12.75h5.063l3.495 4.633zM23.74 25.778h1.36l-8.777-11.633h-1.458z" />
            <defs>
                <clipPath id="Link_1_clip0_1065801_894">
                    <rect fill="#fff" transform="translate(12 12)" width="16" height="16" />
                </clipPath>
            </defs>
        </symbol>
        <symbol id="icon-instagram" viewBox="0 0 40 40" fill="none" xmlns:xlink="http://www.w3.org/1999/xlink">
            <rect fill="var(--color1, #4d5ae5)" width="40" height="40" rx="20" />
            <g fill="var(--color0, #f4f4fd)" clip-path="url(#Link_3_clip0_1065801_886)">
                <path d="M27.9843 16.7039c-0.0375-0.8501-0.175-1.4346-0.3719-1.941-0.2032-0.5376-0.5157-1.0189-0.9252-1.419-0.4001-0.4063-0.8846-0.7221-1.4159-0.9221-0.5094-0.1969-1.0908-0.3344-1.941-0.3719-0.8565-0.0406-1.1284-0.05-3.3007-0.05s-2.4442 94e-4-3.2975 0.0469c-0.8501 0.0374-1.4346 0.175-1.9409 0.3719-0.5377 0.2031-1.019 0.5157-1.4191 0.9252-0.4063 0.4001-0.722 0.8846-0.9221 1.4159-0.1969 0.5095-0.3344 1.0908-0.3719 1.9409-0.0406 0.8565-0.05 1.1284-0.05 3.3007s94e-4 2.4442 0.0469 3.2976c0.0374 0.8501 0.175 1.4346 0.372 1.941 0.2031 0.5376 0.5188 1.0189 0.9251 1.419 0.4001 0.4063 0.8846 0.7221 1.4159 0.922 0.5095 0.197 1.0908 0.3345 1.9411 0.3719 0.8532 0.0377 1.1252 0.0469 3.2975 0.0469s2.4442-92e-4 3.2975-0.0469c0.8501-0.0374 1.4346-0.1749 1.9409-0.3719 1.0753-0.4157 1.9254-1.2658 2.3412-2.341 0.1968-0.5095 0.3344-1.0909 0.3719-1.941 0.0375-0.8534 0.0469-1.1253 0.0469-3.2976s-32e-4-2.4442-0.0407-3.2975zM26.5435 23.2364c-0.0345 0.7815-0.1657 1.2034-0.2751 1.4847-0.2689 0.697-0.8221 1.2503-1.5191 1.5191-0.2813 0.1094-0.7063 0.2407-1.4847 0.275-0.8439 0.0376-1.097 0.0468-3.2318 0.0468s-2.3911-92e-4-3.2319-0.0468c-0.7814-0.0343-1.2034-0.1656-1.4847-0.275-0.3469-0.1282-0.6626-0.3314-0.9189-0.597-0.2657-0.2595-0.4688-0.572-0.597-0.9189-0.1094-0.2813-0.2407-0.7065-0.275-1.4847-0.0376-0.8439-0.0469-1.0971-0.0469-3.2319s93e-4-2.3911 0.0469-3.2319c0.0343-0.7814 0.1656-1.2033 0.275-1.4846 0.1282-0.347 0.3313-0.6626 0.6002-0.919 0.2593-0.2657 0.5719-0.4689 0.9189-0.597 0.2813-0.1093 0.7064-0.2406 1.4846-0.275 0.8439-0.0375 1.0972-0.0469 3.2319-0.0469 2.1379 0 2.391 94e-4 3.2319 0.0469 0.7814 0.0344 1.2034 0.1657 1.4847 0.275 0.3468 0.1281 0.6626 0.3313 0.9189 0.597 0.2656 0.2594 0.4688 0.572 0.597 0.919 0.1094 0.2813 0.2406 0.7063 0.2751 1.4846 0.0375 0.844 0.0469 1.0971 0.0469 3.2319s-94e-4 2.3848-0.0469 3.2287z" />
                <path d="M20.0296 15.8912c-2.2691 0-4.1101 1.841-4.1101 4.1102 0 2.2693 1.841 4.1102 4.1101 4.1102 2.2693 0 4.1102-1.8409 4.1102-4.1102 0-2.2692-1.8409-4.1102-4.1102-4.1102zM20.0296 22.6676c-1.472 0-2.6661-1.194-2.6661-2.6662s1.1941-2.6662 2.6661-2.6662c1.4723 0 2.6662 1.194 2.6662 2.6662s-1.1939 2.6662-2.6662 2.6662z" />
                <path d="M25.262 15.7288c0 0.5299-0.4297 0.9595-0.9597 0.9595-0.5299 0-0.9595-0.4296-0.9595-0.9595 0-0.5301 0.4296-0.9596 0.9595-0.9596 0.53 0 0.9597 0.4295 0.9597 0.9596z" />
            </g>
        </symbol>
        <symbol id="icon-astronaut" viewBox="0 0 264 112" fill="var(--color1, #4d5ae5)" xmlns:xlink="http://www.w3.org/1999/xlink">
            <rect fill="var(--color0, #f4f4fd)" width="263" height="111" rx="3.5" x="0.5" y="0.5" />
            <rect stroke="var(--color3, #8e8f99)" fill="none" width="263" height="111" rx="3.5" x="0.5" y="0.5" />
            <path d="M163.948 33.0481c-0.126-0.3851-0.459-0.6666-0.861-0.7254l-3.82-0.5557-1.71-3.4624c-0.359-0.7297-1.555-0.7297-1.913 0l-1.71 3.4624-3.821 0.5559c-0.402 0.0586-0.735 0.3392-0.862 0.7253-0.124 0.3862-0.021 0.8107 0.27 1.0934l2.766 2.6956-0.653 3.8059c-0.068 0.4 0.096 0.8043 0.424 1.0433 0.332 0.2411 0.765 0.2709 1.124 0.081L156.6 39.97l3.418 1.7974c0.155 0.0821 0.327 0.1226 0.497 0.1226 0.22 0 0.441-0.0682 0.627-0.2037 0.328-0.2389 0.493-0.6433 0.423-1.0433l-0.652-3.8059 2.766-2.6956c0.289-0.2837 0.394-0.7072 0.269-1.0934zM159.022 35.702c-0.25 0.2443-0.366 0.5984-0.306 0.9441l0.382 2.2282-2.001-1.0517c-0.156-0.0822-0.326-0.1227-0.497-0.1227s-0.34 0.0405-0.497 0.1227l-2.001 1.0517 0.381-2.2282c0.06-0.3457-0.055-0.6987-0.306-0.9441l-1.62-1.5786 2.238-0.3254c0.348-0.0501 0.647-0.2687 0.803-0.5835l1.001-2.0267 1 2.0267c0.156 0.3146 0.456 0.5334 0.803 0.5835l2.238 0.3254z" />
            <path d="M152.267 65.0444h-2.133v2.1334h2.133z" />
            <path d="M152.267 69.3112h-2.133v2.1334h2.133z" />
            <path d="M154.4 67.1778h-2.133v2.1334h2.133z" />
            <path d="M150.134 67.1778H148v2.1334h2.134z" />
            <path d="M144.8 76.778h-2.133v2.1333h2.133z" />
            <path d="M144.8 81.0446h-2.133v2.1334h2.133z" />
            <path d="M146.934 78.9114l-2.134-1e-4v2.1333l2.134 2e-4z" />
            <path d="M142.667 78.9113l-2.134 1e-4v2.1334l2.134-2e-4z" />
            <path d="M132 72.5113h-2.133v2.1334H132z" />
            <path d="M132 76.778h-2.133v2.1333H132z" />
            <path d="M134.133 74.6445 132 74.6447v2.1333l2.133-1e-4z" />
            <path d="M129.867 74.6447l-2.134-2e-4v2.1334l2.134 1e-4z" />
            <path d="M111.733 36.244H109.6v2.1334h2.133z" />
            <path d="M111.733 40.5107H109.6v2.1335h2.133z" />
            <path d="M113.866 38.3774h-2.133v2.1333l2.133 1e-4z" />
            <path d="M109.6 38.3774h-2.134v2.1334l2.134-1e-4z" />
            <path fill="var(--color2, #2e2f42)" d="M149.43 52.3189c-0.575-0.7755-1.419-1.2746-2.377-1.4091-0.962-0.1365-1.912 0.1162-2.68 0.704l-2.503 1.9189-1e-3 11e-4-3.796 2.8342-2.715-1.0817c4.842-2.1728 8.227-7.0166 8.227-12.6402 0-7.646-6.245-13.8668-13.922-13.8668s-13.923 6.2208-13.923 13.8668c0 2.7713 0.829 5.3484 2.241 7.5169l-5.528-0.048c-3e-3 0-6e-3 0-0.01 0-0.017 0-0.031 85e-4-0.047 96e-4-0.105 43e-4-0.209 0.0257-0.31 0.0619-0.026 96e-4-0.052 0.015-0.077 0.0266-0.012 54e-4-0.025 64e-4-0.038 0.0128l-6.466 3.1925c-1e-3 0-2e-3 0-2e-3 1e-3l-3.787 1.8211c-0.042 0.0181-0.085 0.0426-0.126 0.0703-1.51 1.0048-2.0237 2.9782-1.197 4.591 0.441 0.8576 1.19 1.4891 2.112 1.7781 0.355 0.1109 0.718 0.1654 1.079 0.1654 0.579 0 1.153-0.1419 1.678-0.4224l2.776-1.4762 4.528-2.3382 2.714-0.016-10.884 10.8312c-1e-3 11e-4-2e-3 11e-4-3e-3 21e-4l-2.677 2.6666c-0.633 0.6294-0.981 1.4646-0.981 2.3553 0 0.8897 0.348 1.7269 0.981 2.3574 0.649 0.6464 1.504 0.9707 2.358 0.9707 0.856 0 1.709-0.3243 2.361-0.9707l2.628-2.6176 3.482-2.5996 1.801 1.7942-3.523 3.5083c-1e-3 11e-4-2e-3 11e-4-3e-3 21e-4l-2.678 2.6667c-0.632 0.6294-0.98 1.4645-0.98 2.3553 0 0.8896 0.348 1.7269 0.98 2.3574 0.65 0.6464 1.505 0.9706 2.36 0.9706 0.854 0 1.71-0.3242 2.36-0.9706l6.964-6.9334c1e-3-11e-4 1e-3-21e-4 2e-3-32e-4l2.019-2.0001-8e-3-75e-4c0.013-0.0127 0.031-0.0171 0.044-0.0308l10.332-11.3165 6.942 0.9878c0.05 75e-4 0.1 0.0106 0.15 0.0106 0.13 0 0.254-0.0308 0.375-0.0767 0.035-0.0128 0.066-0.0299 0.099-0.0469 0.038-0.0192 0.079-0.0299 0.115-0.0544l6.427-4.2667c0.024-0.016 0.036-0.0416 0.059-0.0586 0.025-0.0202 0.057-0.0287 0.081-0.0512l2.543-2.3819c1.323-1.2398 1.505-3.2707 0.424-4.7235zM104.261 59.5403c-0.347 0.1856-0.74 0.2228-1.117 0.1035-0.373-0.1163-0.676-0.3713-0.853-0.7158-0.322-0.6272-0.136-1.391 0.428-1.8038l2.628-1.264 0.898 2.6251zM111.255 55.8848l-3.097 1.6001-0.877-2.5666 4.053-2.0011zM141.454 42.644c0 1.8368-0.439 3.5692-1.198 5.119l-8.363-3.7985c-0.087-1.1466-0.682-2.1504-1.576-2.7755l2.928-9.7207c4.755 1.5127 8.209 5.949 8.209 11.1757zM117.876 42.644c0-6.4695 5.289-11.7335 11.789-11.7335 0.506 0 1 0.0426 1.49 0.1045l-2.864 9.5074c-0.038-12e-4-0.075-0.0118-0.114-0.0118-2.065 0-3.745 1.6747-3.745 3.7334s1.68 3.7335 3.745 3.7335c1.389 0 2.589-0.7669 3.236-1.8892l7.725 3.5094c-2.149 2.8928-5.589 4.7799-9.473 4.7799-6.5 0-11.789-5.2641-11.789-11.7336zM129.789 44.244c0 0.8822-0.724 1.6001-1.612 1.6001-0.889 0-1.612-0.7179-1.612-1.6001 0-0.8821 0.723-1.6 1.612-1.6 0.888 0 1.612 0.7179 1.612 1.6zM104.93 74.2925c-0.473 0.4683-1.238 0.4673-1.709 11e-4-0.227-0.2272-0.352-0.5269-0.352-0.8459 0-0.3178 0.125-0.6176 0.352-0.8426l1.924-1.9169 1.702 1.695zM111.357 81.7594c-0.472 0.4682-1.238 0.4693-1.709 11e-4-0.228-0.2273-0.353-0.5269-0.353-0.8459 0-0.3179 0.125-0.6176 0.353-0.8426l1.925-1.9179 1.703 1.695zM118.321 74.8216c-1e-3 1e-3-2e-3 1e-3-3e-3 22e-4l-3.53 3.52-1.704-1.695 3.527-3.5104c0 0 0 0 0-1e-3 1e-3-12e-4 2e-3-12e-4 3e-3-22e-4 0.08-0.08 0.13-0.176 0.179-0.2709 0.014-0.0277 0.041-0.0512 0.052-0.08 0.034-0.0821 0.039-0.1706 0.052-0.2571 6e-3-0.0491 0.027-0.0949 0.027-0.1451 0-0.0715-0.025-0.1408-0.04-0.2113-0.013-0.064-0.013-0.1291-0.037-0.1908-0.041-0.1003-0.11-0.1888-0.183-0.2753-0.02-0.0235-0.028-0.0534-0.05-0.0757 0 0 0 0-1e-3 0-1e-3-1e-3-1e-3-33e-4-2e-3-43e-4l-3.214-3.2c-0.034-0.0342-0.078-0.048-0.116-0.0768-0.057-0.0437-0.111-0.0842-0.174-0.1152-0.061-0.0299-0.123-0.048-0.187-0.0652-0.068-0.0192-0.134-0.0341-0.206-0.0395-0.065-42e-4-0.126 22e-4-0.191 97e-4-0.071 85e-4-0.138 0.0181-0.208 0.0405-0.067 0.0213-0.126 0.0543-0.188 0.0896-0.04 0.0224-0.085 0.0299-0.122 0.0576l-3.547 2.6475-1.801-1.7941 4.798-4.7723 8.721 8.5772zM131.958 60.7883c-0.031-43e-4-0.059 75e-4-0.09 54e-4-0.078-43e-4-0.153 11e-4-0.231 0.0138-0.06 0.0107-0.118 0.0224-0.176 0.0427-0.068 0.0235-0.13 0.0555-0.193 0.0938-0.06 0.0363-0.114 0.0747-0.166 0.1227-0.026 0.0223-0.057 0.0331-0.08 0.0586l-9.397 10.2914-8.656-8.5133 5.666-5.6363c0.418-0.416 0.42-1.0913 4e-3-1.5094-0.21-0.2101-0.487-0.3136-0.763-0.3125l-4.437 0.0256 0.055-3.2149 6.208 0.0534c2.53 2.5878 6.059 4.2017 9.963 4.2017 0.875 0 1.728-0.0907 2.559-0.2454 0.08 0.064 0.159 0.1291 0.259 0.1696l4.819 1.9201 0.662 3.2874zM140.041 61.1445l-0.627-3.1158 2.893-2.16 1.894 2.5131zM147.548 55.4826l-1.676 1.5701-1.862-2.4725 1.663-1.2747c0.31-0.2388 0.701-0.336 1.085-0.2858 0.387 0.0543 0.728 0.256 0.96 0.5685 0.434 0.5835 0.36 1.3974-0.17 1.8944z" />
            <path fill="var(--color2, #2e2f42)" d="M127.204 61.0881l-4.286-4.2667c-0.415-0.4149-1.089-0.4149-1.505 0l-4.285 4.2667c-0.2 0.2016-0.313 0.4725-0.313 0.7563 0 0.2837 0.112 0.5557 0.313 0.7562l4.285 4.2667c0.208 0.2069 0.481 0.3104 0.753 0.3104s0.545-0.1035 0.752-0.3104l4.286-4.2667c0.201-0.2005 0.315-0.4725 0.315-0.7562 0-0.2838-0.113-0.5558-0.315-0.7563zM122.166 64.606l-2.773-2.7616 2.773-2.7617 2.775 2.7617z" />
            <path fill="var(--color2, #2e2f42)" d="M134.328 34.1415l-0.515 2.0716c0.142 0.0352 3.476 0.9035 3.476 4.2977h2.133c0-4.0343-3.331-5.9309-5.094-6.3693z" />
            <path fill="var(--color2, #2e2f42)" d="M139.422 42.644h-2.133v2.1335h2.133z" />
        </symbol>
        <symbol id="icon-diagram" viewBox="0 0 264 112" fill="none" xmlns:xlink="http://www.w3.org/1999/xlink">
            <rect fill="var(--color0, #f4f4fd)" width="263" height="111" rx="3.5" x="0.5" y="0.5" />
            <rect stroke="var(--color3, #8e8f99)" width="263" height="111" rx="3.5" x="0.5" y="0.5" />
            <g fill="var(--color1, #4d5ae5)" clip-path="url(#Decoration_2_clip0_1065735_1557)">
                <path d="M129.851 53.9292h2.132v9.595h-2.132z" />
                <path d="M138.38 58.1936h2.132v5.3306h-2.132z" />
                <path d="M121.322 61.392h2.132v2.1322h-2.132z" />
                <path d="M114.926 60.3258h2.132v3.1983h-2.132z" />
                <path fill="var(--color2, #2e2f42)" d="M103.198 80.5819h51.174c1.766 0 3.198-1.432 3.198-3.1983v-4.2644c0-1.7663-1.432-3.1984-3.198-3.1984h-1.067V43.3342l6.056-5.7366c1.406 0.6929 3.107 0.2723 4.027-0.9973 0.92-1.2692 0.791-3.0167-0.305-4.1369-1.097-1.1203-2.841-1.2874-4.13-0.3957-1.289 0.8923-1.747 2.5836-1.085 4.0042l-4.563 4.3253v-2.4596c0-1.7663-1.432-3.1983-3.198-3.1983h-42.644c-1.767 0-3.199 1.432-3.199 3.1983v31.9832h-1.066c-1.766 0-3.198 1.4321-3.198 3.1984v4.2644c0 1.7663 1.432 3.1983 3.198 3.1983zM160.768 33.6731c0.589 0 1.066 0.4774 1.066 1.0662 0 0.5887-0.477 1.0661-1.066 1.0661s-1.066-0.4774-1.066-1.0661c0-0.5888 0.477-1.0662 1.066-1.0662zM106.397 37.9376c0-0.5888 0.477-1.0661 1.066-1.0661h42.644c0.589 0 1.066 0.4773 1.066 1.0661v4.4773l-2.132 2.026v-4.3711c0-0.5888-0.477-1.0661-1.066-1.0661h-38.38c-0.589 0-1.066 0.4773-1.066 1.0661v26.6527c0 0.5888 0.477 1.0661 1.066 1.0661h38.38c0.589 0 1.066-0.4773 1.066-1.0661V47.3738l2.132-2.0203v24.5673h-44.776zM115.992 51.797c-1.443-42e-4-2.709 0.9568-3.093 2.3472s0.21 2.8652 1.451 3.6012c1.24 0.7361 2.82 0.5513 3.856-0.4518l3.706 1.8594c0.43 0.2155 0.953 0.1146 1.273-0.2452l7.877-8.8625 7.744 5.8027c0.416 0.3113 0.996 0.278 1.372-0.0786l6.731-6.3753v16.2623h-36.248V41.1359h36.248v5.3207l-7.543 7.1431-7.809-5.8542c-0.444-0.3322-1.068-0.2697-1.436 0.1442l-7.986 8.9854-2.986-1.493c0.022-0.1281 0.036-0.2572 0.041-0.3868 0-1.7662-1.432-3.1983-3.198-3.1983zM117.058 54.9953c0 0.5888-0.478 1.0661-1.066 1.0661-0.589 0-1.066-0.4773-1.066-1.0661 0-0.5887 0.477-1.0661 1.066-1.0661 0.588 0 1.066 0.4774 1.066 1.0661zM123.454 72.0531h10.661v1.0661c0 0.5887-0.477 1.0661-1.066 1.0661h-8.529c-0.588 0-1.066-0.4774-1.066-1.0661zM102.132 73.1192c0-0.5888 0.478-1.0661 1.066-1.0661h18.124v1.0661c0 1.7662 1.432 3.1983 3.198 3.1983h8.529c1.767 0 3.199-1.4321 3.199-3.1983v-1.0661h18.124c0.588 0 1.066 0.4773 1.066 1.0661v4.2644c0 0.5887-0.478 1.0661-1.066 1.0661h-51.174c-0.588 0-1.066-0.4774-1.066-1.0661z" />
            </g>
            <defs>
                <clipPath id="Decoration_2_clip0_1065735_1557">
                    <rect fill="#fff" transform="translate(100 24)" width="64" height="64" />
                </clipPath>
            </defs>
        </symbol>
        <symbol id="icon-clock" viewBox="0 0 264 112" fill="var(--color1, #4d5ae5)" xmlns:xlink="http://www.w3.org/1999/xlink">
            <rect fill="var(--color0, #f4f4fd)" width="263" height="111" rx="3.5" x="0.5" y="0.5" />
            <rect stroke="var(--color3, #8e8f99)" fill="none" width="263" height="111" rx="3.5" x="0.5" y="0.5" />
            <path fill="var(--color2, #2e2f42)" d="M162.593 54.6025C162.59 37.6978 148.883 23.9966 131.978 24s-30.606 13.7109-30.603 30.6157c3e-3 13.3159 8.614 25.1021 21.299 29.1524 0.121 0.0381 0.247 0.0576 0.373 0.0571 0.242-5e-4 0.478-0.0649 0.685-0.1875 0.27-0.1597 0.472-0.4136 0.567-0.7129l7.73-24.5c2.113-0.0107 3.817-1.7329 3.806-3.8457-0.011-2.1133-1.732-3.8174-3.846-3.8066-0.568 24e-4-1.129 0.1333-1.64 0.3828l-10.212-10.2134c-0.507-0.4893-1.314-0.4751-1.803 0.0312-0.478 0.4947-0.478 1.2779 0 1.7725l10.207 10.2183c-0.784 1.5986-0.336 3.5283 1.072 4.6181l-7.365 23.3457c-14.556-5.3618-22.009-21.5078-16.647-36.0634 5.362-14.5557 21.508-22.0088 36.064-16.647 14.555 5.3618 22.008 21.5083 16.647 36.0635-2.62 7.1113-8.002 12.8623-14.925 15.9467l-0.796-3.7485c-0.145-0.689-0.822-1.1294-1.511-0.9834-0.218 0.0464-0.419 0.1485-0.585 0.2964l-7.674 6.8511c-0.527 0.4682-0.573 1.2744-0.105 1.8008 0.153 0.1709 0.348 0.2978 0.567 0.3676l9.797 3.127c0.671 0.2153 1.389-0.1533 1.604-0.8242 0.068-0.2119 0.08-0.4375 0.034-0.6553l-0.782-3.6782c11.328-4.7759 18.684-15.8843 18.657-28.1783zM131.984 53.3272c0.705 0 1.276 0.5712 1.276 1.2753 0 0.7046-0.571 1.2754-1.276 1.2754-0.704 0-1.275-0.5708-1.275-1.2754 0-0.7041 0.571-1.2753 1.275-1.2753zM136.185 83.0552l4.368-3.8965 1.206 5.6807z" />
            <path d="M130.709 30.3701v2.5508c0 0.7046 0.571 1.2754 1.275 1.2754s1.276-0.5708 1.276-1.2754v-2.5508c0-0.7041-0.572-1.2754-1.276-1.2754s-1.275 0.5713-1.275 1.2754z" />
            <path d="M107.752 53.3271c-0.705 0-1.275 0.5713-1.275 1.2754 0 0.7046 0.57 1.2754 1.275 1.2754h2.551c0.704 0 1.275-0.5708 1.275-1.2754 0-0.7041-0.571-1.2754-1.275-1.2754z" />
            <path d="M156.216 55.8779c0.705 0 1.276-0.5708 1.276-1.2754 0-0.7041-0.571-1.2754-1.276-1.2754h-2.551c-0.704 0-1.275 0.5713-1.275 1.2754 0 0.7046 0.571 1.2754 1.275 1.2754z" />
        </symbol>
        <symbol id="icon-antenna" viewBox="0 0 264 112" fill="none" xmlns:xlink="http://www.w3.org/1999/xlink">
            <rect fill="var(--color0, #f4f4fd)" width="263" height="111" rx="3.5" x="0.5" y="0.5" />
            <rect stroke="var(--color3, #8e8f99)" width="263" height="111" rx="3.5" x="0.5" y="0.5" />
            <path fill="var(--color2, #2e2f42)" d="M161.546 68.1952 144.66 51.1851l1.874-9.231c0.484 0.1888 0.998 0.2875 1.517 0.2912h0.013c2.384 0.0282 4.34-1.882 4.368-4.2665 0.029-2.3845-1.882-4.3404-4.266-4.3687-2.385-0.0281-4.341 1.882-4.369 4.2666-6e-3 0.5102 0.078 1.0174 0.25 1.4982l-9.92 1.2107L117.945 24.32c-0.198-0.2025-0.469-0.3177-0.753-0.32-0.28 15e-4-0.548 0.1129-0.747 0.3104l-3.025 3.008c-0.416 0.4165-0.416 1.0917 0 1.5083l1.628 1.6512c-6.306 11.5958-4.258 25.9556 5.039 35.3258 0.085 0.0816 0.184 0.1476 0.292 0.1952-0.067 0.361-0.102 0.7272-0.104 1.0944v12.3734h-12.8c-2.944 34e-4-5.33 2.3893-5.334 5.3333v2.1333c0 0.5891 0.478 1.0667 1.067 1.0667h49.067c0.589 0 1.066-0.4776 1.066-1.0667V84.8c-3e-3-2.944-2.389-5.3299-5.333-5.3333h-12.8v-5.4838c2.005 0.4206 4.048 0.635 6.097 0.64 4.916-53e-4 9.754-1.2309 14.08-3.5669l1.636 1.6459c0.199 0.2025 0.47 0.3177 0.754 0.32 0.28-15e-4 0.548-0.113 0.746-0.3104l3.025-3.008c0.417-0.4166 0.417-1.0918 0-1.5083zM146.56 36.4661c0.835-0.8309 2.186-0.8272 3.017 82e-4 0.83 0.8353 0.827 2.1861-9e-3 3.0169-0.399 0.3977-0.941 0.6209-1.505 0.6208h-6e-3c-1.178-61e-4-2.128-0.9661-2.122-2.1444 3e-3-0.564 0.229-1.1037 0.625-1.5015zM144.049 43.4752l-1.197 5.8912-2.351-2.3648zM142.837 41.6715l-3.84 3.8176-2.971-2.9867zM148.008 81.6c1.767 0 3.2 1.4327 3.2 3.2v1.0667h-46.933V84.8c0-1.7673 1.432-3.2 3.2-3.2zM133.075 77.3333v2.1334h-10.667v-2.1334zM122.408 75.2v-8.1067c0-2.5877 2.393-4.6933 5.333-4.6933 2.941 0 5.334 2.1056 5.334 4.6933V75.2zM135.208 71.808v-4.7147c0-3.7642-3.349-6.8266-7.467-6.8266-2.662-0.0408-5.151 1.3142-6.562 3.5722-8.115-8.5476-9.943-21.2904-4.557-31.7742l37.204 37.4169c-5.745 2.9224-12.331 3.7452-18.618 2.3264zM157.786 70.4405l-40.605-40.849-1.509-1.5126 1.509-1.504 15.87 15.9595c8e-3 0 0.012 0.0139 0.02 0.0192L159.3 68.9365z" />
            <path fill="var(--color1, #4d5ae5)" d="M127.751 64.5333h-0.01c-1.767-26e-4-3.202 1.4279-3.204 3.1952-3e-3 1.7674 1.428 3.2022 3.195 3.2048h9e-3c1.768 27e-4 3.203-1.4278 3.205-3.1952 3e-3-1.7673-1.428-3.2021-3.195-3.2048zM128.498 68.4896c-0.201 0.1997-0.473 0.3115-0.757 0.3104-0.589-31e-4-1.064-0.4831-1.061-1.0721 2e-3-0.282 0.115-0.5519 0.315-0.7508 0.198-0.1975 0.466-0.309 0.746-0.3104 0.59 3e-3 1.065 0.483 1.062 1.0721-2e-3 0.282-0.115 0.5519-0.305 0.7508z" />
        </symbol>
    </defs>

    <symbol id="icon-close" viewBox="0 0 8 8" fill="none">
        <path fill="var(--color2, #2e2f42)" d="M8 0.8057 7.1943 0 4 3.1943 0.8057 0 0 0.8057 3.1943 4 0 7.1943 0.8057 8 4 4.8057 7.1943 8 8 7.1943 4.8057 4z" />
    </symbol>
    <symbol id="icon-check" viewBox="0 0 10 8" fill="none">
        <path fill="var(--color0, #f4f4fd)" d="M8.4456 0.2551C8.6184 0.0897 8.8483-18e-4 9.0869 0 9.3255 18e-4 9.5541 0.0968 9.7244 0.2648c0.1703 0.168 0.269 0.396 0.2753 0.6357 63e-4 0.2398-0.0803 0.4727-0.2415 0.6495L4.8636 7.7044c-0.0842 0.0911-0.1858 0.1642-0.2987 0.215S4.33 7.9975 4.2064 7.9998c-0.1237 23e-4-0.2466-0.0205-0.3613-0.067C3.7304 7.8863 3.6262 7.817 3.5387 7.729L0.2928 4.4656C0.2024 4.381 0.1299 4.2788 0.0796 4.1654 0.0294 4.0519 23e-4 3.9294 1e-4 3.8052S0.0207 3.5577 0.067 3.4425c0.0462-0.1152 0.1151-0.2198 0.2025-0.3077 0.0873-0.0878 0.1914-0.1571 0.306-0.2036s0.2372-0.0693 0.3608-0.0671 0.2453 0.0293 0.3582 0.0799c0.1128 0.0505 0.2144 0.1234 0.2987 0.2143l2.5687 2.5814 4.2604-5.4575c76e-4-95e-4 0.0158-0.0186 0.0245-0.0271z" />
    </symbol>
    <symbol id="icon-email" viewBox="0 0 18 24" fill="none">
        <path fill="var(--color2, #2e2f42)" d="M15 6H3C2.175 6 1.5075 6.675 1.5075 7.5l-75e-4 9C1.5 17.325 2.175 18 3 18h12c0.825 0 1.5-0.675 1.5-1.5v-9C16.5 6.675 15.825 6 15 6zM14.7 9.1875l-5.3025 3.315c-0.24 0.15-0.555 0.15-0.795 0L3.3 9.1875C3.1125 9.0675 3 8.865 3 8.6475 3 8.145 3.5475 7.845 3.975 8.1075L9 11.25l5.025-3.1425C14.4525 7.845 15 8.145 15 8.6475c0 0.2175-0.1125 0.42-0.3 0.54z" />
    </symbol>
    <symbol id="icon-phone" viewBox="0 0 18 24" fill="none">
        <path fill="var(--color2, #2e2f42)" d="M14.2263 14.3651l-1.8382-0.2099c-0.4414-0.0506-0.8756 0.1014-1.1868 0.4125l-1.3316 1.3316c-2.048-1.0421-3.7269-2.7138-4.769-4.769l1.3388-1.3389C6.7507 9.4803 6.9026 9.046 6.852 8.6046L6.6421 6.7809C6.5553 6.05 5.9401 5.5 5.202 5.5H3.95c-0.8177 0-1.498 0.6803-1.4473 1.498 0.3835 6.1803 5.3262 11.1158 11.4992 11.4993 0.8178 0.0507 1.498-0.6296 1.498-1.4473v-1.252c73e-4-0.7309-0.5427-1.346-1.2736-1.4329z" />
    </symbol>
    <symbol id="icon-person" viewBox="0 0 18 24" fill="none">
        <path fill="var(--color2, #2e2f42)" d="M9 12c1.6575 0 3-1.3425 3-3s-1.3425-3-3-3-3 1.3425-3 3 1.3425 3 3 3zM9 13.5c-2.0025 0-6 1.005-6 3v0.75C3 17.6625 3.3375 18 3.75 18h10.5c0.4125 0 0.75-0.3375 0.75-0.75V16.5c0-1.995-3.9975-3-6-3z" />
    </symbol>
    <symbol id="icon-send" viewBox="0 0 24 24" fill="none">
        <path fill="var(--color4, #fff)" d="M24 2 0 13.25l7.6699 2.3672L19.5 6.375 10.5017 16.4913l73e-4 23e-4-9e-3-23e-4V22l4.3013-4.1817 5.4488 1.6817z" />
    </symbol>
</svg>